solid inclineplane 
facet normal  0.7071 0.7071  0.0
 outer loop
  vertex  0.0   0.005 -0.005
  vertex  0.0025 0.0025 0.005
  vertex  0.005 0.0   -0.005
 endloop
endfacet
facet normal  0.7071 0.7071  0.0
 outer loop
  vertex  0.005   0.0  -0.005
  vertex  0.0025 0.0025 0.005
  vertex  0.005   0.0   0.015
 endloop
endfacet
facet normal  0.7071 0.7071  0.0
 outer loop
  vertex  0.005   0.0   0.015
  vertex  0.0025 0.0025 0.005
  vertex  0.000   0.005 0.015
 endloop
endfacet
facet normal  0.7071 0.7071  0.0
 outer loop
  vertex  0.0  0.005   0.015
  vertex  0.0025 0.0025 0.005
  vertex  0.0  0.005   -0.005
 endloop
endfacet
facet normal  0.0  0.0 1.0
 outer loop
  vertex  0.0   0.0   0.015
  vertex  0.005 0.0   0.015
  vertex  0.0  0.005  0.015
 endloop
endfacet
facet normal  0.0  0.0 -1.0
 outer loop
  vertex  0.0  0.0   -0.005
  vertex  0.0  0.005 -0.005
  vertex  0.005 0.0  -0.005
 endloop
endfacet
facet normal  -1.0 0.0  0.0
 outer loop
  vertex  0.0  0.0   0.015
  vertex  0.0  0.005 0.015
  vertex  0.0  0.0  -0.005
 endloop
endfacet
facet normal  -1.0 0.0  0.0
 outer loop
  vertex  0.0  0.005   0.015
  vertex  0.0  0.005  -0.005
  vertex  0.0  0.0    -0.005
 endloop
endfacet
facet normal  0.0 -1.0  0.0
 outer loop
  vertex  0.0  0.0   0.015
  vertex  0.0  0.0  -0.005
  vertex  0.005  0.0 0.015
 endloop
endfacet
facet normal  -1.0 0.0  0.0
 outer loop
  vertex  0.0    0.0   -0.005
  vertex  0.005  0.0   -0.005
  vertex  0.005  0.0    0.015
 endloop
endfacet
endsolid inclinedplane 
