solid block.stl
facet normal 0.000000 0.000000 -1.000000
  outer loop
    vertex -0.100000 -0.300000 -0.100000
    vertex -0.100000 0.000000 -0.100000
    vertex 0.700000 -0.300000 -0.100000
  endloop
endfacet
facet normal 0.000000 0.000000 -1.000000
  outer loop
    vertex 0.700000 -0.300000 -0.100000
    vertex -0.100000 0.000000 -0.100000
    vertex 0.700000 0.000000 -0.100000
  endloop
endfacet
facet normal -1.000000 0.000000 0.000000
  outer loop
    vertex -0.100000 -0.300000 -0.100000
    vertex -0.100000 -0.300000 0.700000
    vertex -0.100000 0.000000 0.700000
  endloop
endfacet
facet normal -1.000000 0.000000 0.000000
  outer loop
    vertex -0.100000 -0.300000 -0.100000
    vertex -0.100000 0.000000 0.700000
    vertex -0.100000 0.000000 -0.100000
  endloop
endfacet
facet normal 0.000000 0.000000 1.000000
  outer loop
    vertex -0.100000 -0.300000 0.700000
    vertex 0.700000 -0.300000 0.700000
    vertex 0.700000 0.000000 0.700000
  endloop
endfacet
facet normal 0.000000 0.000000 1.000000
  outer loop
    vertex -0.100000 -0.300000 0.700000
    vertex 0.700000 0.000000 0.700000
    vertex -0.100000 0.000000 0.700000
  endloop
endfacet
facet normal 1.000000 0.000000 0.000000
  outer loop
    vertex 0.700000 -0.300000 0.700000
    vertex 0.700000 -0.300000 -0.100000
    vertex 0.700000 0.000000 -0.100000
  endloop
endfacet
facet normal 1.000000 -0.000000 0.000000
  outer loop
    vertex 0.700000 -0.300000 0.700000
    vertex 0.700000 0.000000 -0.100000
    vertex 0.700000 0.000000 0.700000
  endloop
endfacet
facet normal 0.000000 1.000000 -0.000000
  outer loop
    vertex 0.700000 0.000000 -0.100000
    vertex -0.100000 0.000000 -0.100000
    vertex 0.700000 0.000000 0.700000
  endloop
endfacet
facet normal 0.000000 1.000000 0.000000
  outer loop
    vertex -0.100000 0.000000 -0.100000
    vertex -0.100000 0.000000 0.700000
    vertex 0.700000 0.000000 0.700000
  endloop
endfacet
facet normal 0.000000 -1.000000 0.000000
  outer loop
    vertex -0.100000 -0.300000 -0.100000
    vertex 0.700000 -0.300000 -0.100000
    vertex 0.700000 -0.300000 0.700000
  endloop
endfacet
facet normal 0.000000 -1.000000 0.000000
  outer loop
    vertex -0.100000 -0.300000 -0.100000
    vertex 0.700000 -0.300000 0.700000
    vertex -0.100000 -0.300000 0.700000
  endloop
endfacet
endsolid block.stl
