solid block.stl
facet normal 0.000000 0.000000 -1.000000
  outer loop
    vertex -0.001000 0.001800 -0.001000
    vertex -0.001000 0.005000 -0.001000
    vertex 0.005000 0.001800 -0.001000
  endloop
endfacet
facet normal 0.000000 0.000000 -1.000000
  outer loop
    vertex 0.005000 0.001800 -0.001000
    vertex -0.001000 0.005000 -0.001000
    vertex 0.005000 0.005000 -0.001000
  endloop
endfacet
facet normal -1.000000 0.000000 0.000000
  outer loop
    vertex -0.001000 0.001800 -0.001000
    vertex -0.001000 0.001800 0.005000
    vertex -0.001000 0.005000 0.005000
  endloop
endfacet
facet normal -1.000000 0.000000 0.000000
  outer loop
    vertex -0.001000 0.001800 -0.001000
    vertex -0.001000 0.005000 0.005000
    vertex -0.001000 0.005000 -0.001000
  endloop
endfacet
facet normal 0.000000 0.000000 1.000000
  outer loop
    vertex -0.001000 0.001800 0.005000
    vertex 0.005000 0.001800 0.005000
    vertex 0.005000 0.005000 0.005000
  endloop
endfacet
facet normal 0.000000 0.000000 1.000000
  outer loop
    vertex -0.001000 0.001800 0.005000
    vertex 0.005000 0.005000 0.005000
    vertex -0.001000 0.005000 0.005000
  endloop
endfacet
facet normal 1.000000 0.000000 0.000000
  outer loop
    vertex 0.005000 0.001800 0.005000
    vertex 0.005000 0.001800 -0.001000
    vertex 0.005000 0.005000 -0.001000
  endloop
endfacet
facet normal 1.000000 -0.000000 0.000000
  outer loop
    vertex 0.005000 0.001800 0.005000
    vertex 0.005000 0.005000 -0.001000
    vertex 0.005000 0.005000 0.005000
  endloop
endfacet
facet normal 0.000000 1.000000 -0.000000
  outer loop
    vertex 0.005000 0.005000 -0.001000
    vertex -0.001000 0.005000 -0.001000
    vertex 0.005000 0.005000 0.005000
  endloop
endfacet
facet normal 0.000000 1.000000 0.000000
  outer loop
    vertex -0.001000 0.005000 -0.001000
    vertex -0.001000 0.005000 0.005000
    vertex 0.005000 0.005000 0.005000
  endloop
endfacet
facet normal 0.000000 -1.000000 0.000000
  outer loop
    vertex -0.001000 0.001800 -0.001000
    vertex 0.005000 0.001800 -0.001000
    vertex 0.005000 0.001800 0.005000
  endloop
endfacet
facet normal 0.000000 -1.000000 0.000000
  outer loop
    vertex -0.001000 0.001800 -0.001000
    vertex 0.005000 0.001800 0.005000
    vertex -0.001000 0.001800 0.005000
  endloop
endfacet
endsolid block.stl
